HIERARCHY
ROOT newVegas:Hips
{
	OFFSET 0.000000 96.479958 0.000000
	CHANNELS 6 Xposition Yposition Zposition Xrotation Yrotation Zrotation
	JOINT newVegas:Pelvis
	{
		OFFSET 0.000000 0.000000 0.000000
		CHANNELS 3 Xrotation Yrotation Zrotation
		JOINT newVegas:LeftUpLeg
		{
			OFFSET 18.735201 -5.666702 -4.541200
			CHANNELS 3 Xrotation Yrotation Zrotation
			JOINT newVegas:LeftLeg
			{
				OFFSET -0.021200 -31.938179 0.493100
				CHANNELS 3 Xrotation Yrotation Zrotation
				JOINT newVegas:LeftFoot
				{
					OFFSET 0.021200 -31.938179 -4.336299
					CHANNELS 3 Xrotation Yrotation Zrotation
					JOINT newVegas:LeftToeBase
					{
						OFFSET 0.943001 -26.722000 15.023500
						CHANNELS 3 Xrotation Yrotation Zrotation
						End Site
						{
							OFFSET 0.000000 30.670183 0.000000
						}
					}
				}
				JOINT newVegas:Left_PantLeg
				{
					OFFSET 0.663870 -9.044666 -1.108900
					CHANNELS 3 Xrotation Yrotation Zrotation
					End Site
					{
						OFFSET 1.415995 20.635357 0.000000
					}
				}
			}
		}
		JOINT newVegas:RightUpLeg
		{
			OFFSET -18.735201 -5.666702 -4.541200
			CHANNELS 3 Xrotation Yrotation Zrotation
			JOINT newVegas:RightLeg
			{
				OFFSET 0.018946 -31.938133 0.493100
				CHANNELS 3 Xrotation Yrotation Zrotation
				JOINT newVegas:RightFoot
				{
					OFFSET -0.018946 -31.938126 -4.336299
					CHANNELS 3 Xrotation Yrotation Zrotation
					JOINT newVegas:RightToeBase
					{
						OFFSET -0.943001 -26.722004 15.023500
						CHANNELS 3 Xrotation Yrotation Zrotation
						End Site
						{
							OFFSET 0.000000 30.670187 0.000000
						}
					}
				}
				JOINT newVegas:Right_PantLeg
				{
					OFFSET -0.661674 -9.044716 -1.108900
					CHANNELS 3 Xrotation Yrotation Zrotation
					End Site
					{
						OFFSET -1.415958 20.635269 0.000000
					}
				}
			}
		}
	}
	JOINT newVegas:Spine
	{
		OFFSET 0.000000 10.199997 -0.299500
		CHANNELS 3 Xrotation Yrotation Zrotation
		JOINT newVegas:Spine1
		{
			OFFSET 0.000000 11.900002 -1.516600
			CHANNELS 3 Xrotation Yrotation Zrotation
			JOINT newVegas:Spine2
			{
				OFFSET 0.000000 13.600006 -2.842500
				CHANNELS 3 Xrotation Yrotation Zrotation
				JOINT newVegas:Neck
				{
					OFFSET 0.000000 9.624100 -2.890100
					CHANNELS 3 Xrotation Yrotation Zrotation
					JOINT newVegas:Head
					{
						OFFSET 0.000000 14.068802 -1.351900
						CHANNELS 3 Xrotation Yrotation Zrotation
						JOINT newVegas:Hair_Back
						{
							OFFSET 0.000000 3.231903 -17.524799
							CHANNELS 3 Xrotation Yrotation Zrotation
							End Site
							{
								OFFSET 0.000000 19.849884 0.000000
							}
						}
						JOINT newVegas:Hair_Front
						{
							OFFSET 0.000000 31.260406 4.573800
							CHANNELS 3 Xrotation Yrotation Zrotation
							JOINT newVegas:Hair_Front1
							{
								OFFSET 0.000000 2.284103 11.993300
								CHANNELS 3 Xrotation Yrotation Zrotation
								JOINT newVegas:Hair_Front2
								{
									OFFSET 0.000000 2.284103 11.993300
									CHANNELS 3 Xrotation Yrotation Zrotation
									End Site
									{
										OFFSET 0.000000 12.208862 0.000000
									}
								}
							}
						}
						JOINT newVegas:Jowel
						{
							OFFSET 0.000000 -7.458206 6.864100
							CHANNELS 3 Xrotation Yrotation Zrotation
							End Site
							{
								OFFSET 0.000000 19.849884 0.000000
							}
						}
					}
				}
				JOINT newVegas:LeftShoulder
				{
					OFFSET 15.263000 10.923401 -0.547700
					CHANNELS 3 Xrotation Yrotation Zrotation
					JOINT newVegas:LeftArm
					{
						OFFSET 25.438599 -2.830597 -13.032500
						CHANNELS 3 Xrotation Yrotation Zrotation
						JOINT newVegas:LeftForeArm
						{
							OFFSET 29.960503 0.000000 0.000000
							CHANNELS 3 Xrotation Yrotation Zrotation
							JOINT newVegas:LeftHand
							{
								OFFSET 27.849251 0.000000 0.000000
								CHANNELS 3 Xrotation Yrotation Zrotation
								JOINT newVegas:LeftHandThumb1
								{
									OFFSET 4.487587 -3.305161 6.305391
									CHANNELS 3 Xrotation Yrotation Zrotation
									JOINT newVegas:LeftHandThumb2
									{
										OFFSET 5.480453 -3.164139 3.164143
										CHANNELS 3 Xrotation Yrotation Zrotation
										JOINT newVegas:LeftHandThumb3
										{
											OFFSET 5.159721 -2.978973 2.978967
											CHANNELS 3 Xrotation Yrotation Zrotation
											End Site
											{
												OFFSET 2.494507 5.926697 1.738678
											}
										}
									}
								}
								JOINT newVegas:LeftHandIndex1
								{
									OFFSET 18.578728 -0.527832 5.208049
									CHANNELS 3 Xrotation Yrotation Zrotation
									JOINT newVegas:LeftHandIndex2
									{
										OFFSET 3.192009 0.000000 0.000000
										CHANNELS 3 Xrotation Yrotation Zrotation
										JOINT newVegas:LeftHandIndex3
										{
											OFFSET 3.835129 0.000000 0.000000
											CHANNELS 3 Xrotation Yrotation Zrotation
											End Site
											{
												OFFSET -0.034599 3.816971 0.371180
											}
										}
									}
								}
								JOINT newVegas:LeftHandMiddle1
								{
									OFFSET 18.476105 0.000000 0.000000
									CHANNELS 3 Xrotation Yrotation Zrotation
									JOINT newVegas:LeftHandMiddle2
									{
										OFFSET 3.324875 0.000000 0.000000
										CHANNELS 3 Xrotation Yrotation Zrotation
										JOINT newVegas:LeftHandMiddle3
										{
											OFFSET 4.596550 0.000000 0.000000
											CHANNELS 3 Xrotation Yrotation Zrotation
											End Site
											{
												OFFSET 0.057701 4.578827 0.399218
											}
										}
									}
								}
								JOINT newVegas:LeftHandRing1
								{
									OFFSET 17.732719 0.121887 -4.201567
									CHANNELS 3 Xrotation Yrotation Zrotation
									JOINT newVegas:LeftHandRing2
									{
										OFFSET 2.733170 0.000000 0.000000
										CHANNELS 3 Xrotation Yrotation Zrotation
										JOINT newVegas:LeftHandRing3
										{
											OFFSET 3.178268 0.000000 0.000000
											CHANNELS 3 Xrotation Yrotation Zrotation
											End Site
											{
												OFFSET 0.119102 3.170624 0.185394
											}
										}
									}
								}
								JOINT newVegas:LeftHandPinky1
								{
									OFFSET 15.989624 -0.606689 -7.535461
									CHANNELS 3 Xrotation Yrotation Zrotation
									JOINT newVegas:LeftHandPinky2
									{
										OFFSET 2.538986 0.000000 0.000000
										CHANNELS 3 Xrotation Yrotation Zrotation
										JOINT newVegas:LeftHandPinky3
										{
											OFFSET 2.593102 0.000000 0.000000
											CHANNELS 3 Xrotation Yrotation Zrotation
											End Site
											{
												OFFSET -0.150902 2.584198 0.152708
											}
										}
									}
								}
							}
							JOINT newVegas:Left_Sleeve
							{
								OFFSET 0.267448 -0.649796 0.577675
								CHANNELS 3 Xrotation Yrotation Zrotation
								End Site
								{
									OFFSET 0.000000 15.991241 0.000000
								}
							}
							JOINT newVegas:Left_CapeC
							{
								OFFSET 15.715958 -8.608795 -6.935905
								CHANNELS 3 Xrotation Yrotation Zrotation
								JOINT newVegas:Left_CapeC1
								{
									OFFSET 0.000000 -8.688499 0.000000
									CHANNELS 3 Xrotation Yrotation Zrotation
									End Site
									{
										OFFSET 0.000000 8.688499 0.000000
									}
								}
							}
						}
						JOINT newVegas:Left_CapeB
						{
							OFFSET 26.118385 -8.608795 -7.079235
							CHANNELS 3 Xrotation Yrotation Zrotation
							JOINT newVegas:Left_CapeB1
							{
								OFFSET 0.000000 -8.688499 0.000000
								CHANNELS 3 Xrotation Yrotation Zrotation
								End Site
								{
									OFFSET 0.000000 8.688499 0.000000
								}
							}
						}
						JOINT newVegas:Left_CapeA
						{
							OFFSET 5.115639 -8.608795 -10.395809
							CHANNELS 3 Xrotation Yrotation Zrotation
							JOINT newVegas:Left_CapeA1
							{
								OFFSET 0.000000 -8.688499 0.000000
								CHANNELS 3 Xrotation Yrotation Zrotation
								End Site
								{
									OFFSET 0.000000 8.688499 0.000000
								}
							}
						}
					}
				}
				JOINT newVegas:RightShoulder
				{
					OFFSET -15.263000 10.923401 -0.547700
					CHANNELS 3 Xrotation Yrotation Zrotation
					JOINT newVegas:RightArm
					{
						OFFSET -25.438599 -2.830597 -13.032500
						CHANNELS 3 Xrotation Yrotation Zrotation
						JOINT newVegas:RightForeArm
						{
							OFFSET -29.960503 0.000000 0.000000
							CHANNELS 3 Xrotation Yrotation Zrotation
							JOINT newVegas:RightHand
							{
								OFFSET -27.849251 0.000000 0.000000
								CHANNELS 3 Xrotation Yrotation Zrotation
								JOINT newVegas:RightHandThumb1
								{
									OFFSET -4.487587 -3.305161 6.305391
									CHANNELS 3 Xrotation Yrotation Zrotation
									JOINT newVegas:RightHandThumb2
									{
										OFFSET -5.480453 -3.164139 3.164143
										CHANNELS 3 Xrotation Yrotation Zrotation
										JOINT newVegas:RightHandThumb3
										{
											OFFSET -5.159721 -2.978973 2.978967
											CHANNELS 3 Xrotation Yrotation Zrotation
											End Site
											{
												OFFSET -2.494507 5.926697 1.738678
											}
										}
									}
								}
								JOINT newVegas:RightHandIndex1
								{
									OFFSET -18.578728 -0.527832 5.208049
									CHANNELS 3 Xrotation Yrotation Zrotation
									JOINT newVegas:RightHandIndex2
									{
										OFFSET -3.192009 0.000000 0.000000
										CHANNELS 3 Xrotation Yrotation Zrotation
										JOINT newVegas:RightHandIndex3
										{
											OFFSET -3.835129 0.000000 0.000000
											CHANNELS 3 Xrotation Yrotation Zrotation
											End Site
											{
												OFFSET 0.034599 3.816971 0.371180
											}
										}
									}
								}
								JOINT newVegas:RightHandMiddle1
								{
									OFFSET -18.476105 0.000000 0.000000
									CHANNELS 3 Xrotation Yrotation Zrotation
									JOINT newVegas:RightHandMiddle2
									{
										OFFSET -3.324875 0.000000 0.000000
										CHANNELS 3 Xrotation Yrotation Zrotation
										JOINT newVegas:RightHandMiddle3
										{
											OFFSET -4.596550 0.000000 0.000000
											CHANNELS 3 Xrotation Yrotation Zrotation
											End Site
											{
												OFFSET -0.057701 4.578827 0.399218
											}
										}
									}
								}
								JOINT newVegas:RightHandRing1
								{
									OFFSET -17.732719 0.121887 -4.201567
									CHANNELS 3 Xrotation Yrotation Zrotation
									JOINT newVegas:RightHandRing2
									{
										OFFSET -2.733170 0.000000 0.000000
										CHANNELS 3 Xrotation Yrotation Zrotation
										JOINT newVegas:RightHandRing3
										{
											OFFSET -3.178268 0.000000 0.000000
											CHANNELS 3 Xrotation Yrotation Zrotation
											End Site
											{
												OFFSET -0.119102 3.170624 0.185394
											}
										}
									}
								}
								JOINT newVegas:RightHandPinky1
								{
									OFFSET -15.989624 -0.606689 -7.535461
									CHANNELS 3 Xrotation Yrotation Zrotation
									JOINT newVegas:RightHandPinky2
									{
										OFFSET -2.538986 0.000000 0.000000
										CHANNELS 3 Xrotation Yrotation Zrotation
										JOINT newVegas:RightHandPinky3
										{
											OFFSET -2.593102 0.000000 0.000000
											CHANNELS 3 Xrotation Yrotation Zrotation
											End Site
											{
												OFFSET 0.150902 2.584198 0.152708
											}
										}
									}
								}
							}
							JOINT newVegas:Right_CapeC
							{
								OFFSET -15.715958 -8.608795 -6.935905
								CHANNELS 3 Xrotation Yrotation Zrotation
								JOINT newVegas:Right_CapeC1
								{
									OFFSET 0.000000 -8.688499 0.000000
									CHANNELS 3 Xrotation Yrotation Zrotation
									End Site
									{
										OFFSET 0.000000 8.688499 0.000000
									}
								}
							}
							JOINT newVegas:Right_Sleeve
							{
								OFFSET -0.267448 -0.649994 0.577675
								CHANNELS 3 Xrotation Yrotation Zrotation
								End Site
								{
									OFFSET 0.000000 15.991302 0.000000
								}
							}
						}
						JOINT newVegas:Right_CapeA
						{
							OFFSET -5.115540 -8.608795 -10.395824
							CHANNELS 3 Xrotation Yrotation Zrotation
							JOINT newVegas:Right_CapeA1
							{
								OFFSET 0.000000 -8.688499 0.000000
								CHANNELS 3 Xrotation Yrotation Zrotation
								End Site
								{
									OFFSET 0.000000 8.688499 0.000000
								}
							}
						}
						JOINT newVegas:Right_CapeB
						{
							OFFSET -26.118187 -8.608795 -7.079266
							CHANNELS 3 Xrotation Yrotation Zrotation
							JOINT newVegas:Right_CapeB1
							{
								OFFSET 0.000000 -8.688499 0.000000
								CHANNELS 3 Xrotation Yrotation Zrotation
								End Site
								{
									OFFSET 0.000000 8.688499 0.000000
								}
							}
						}
					}
				}
				JOINT newVegas:Left_Collar
				{
					OFFSET 18.625099 8.655502 8.828100
					CHANNELS 3 Xrotation Yrotation Zrotation
					JOINT newVegas:Left_Collar1
					{
						OFFSET 14.783401 10.540405 -1.259500
						CHANNELS 3 Xrotation Yrotation Zrotation
						End Site
						{
							OFFSET 0.000000 18.199875 0.000000
						}
					}
				}
				JOINT newVegas:Collar_Back
				{
					OFFSET 0.000000 15.630707 -20.132601
					CHANNELS 3 Xrotation Yrotation Zrotation
					End Site
					{
						OFFSET 0.000000 22.523010 0.000000
					}
				}
				JOINT newVegas:Left_Peck
				{
					OFFSET 17.239599 -5.132599 25.482599
					CHANNELS 3 Xrotation Yrotation Zrotation
					End Site
					{
						OFFSET 0.000000 22.523010 0.000000
					}
				}
				JOINT newVegas:Right_Peck
				{
					OFFSET -17.239599 -5.132202 25.482599
					CHANNELS 3 Xrotation Yrotation Zrotation
					End Site
					{
						OFFSET 0.000000 22.523010 0.000000
					}
				}
				JOINT newVegas:Right_Collar
				{
					OFFSET -18.625099 8.655792 8.828100
					CHANNELS 3 Xrotation Yrotation Zrotation
					JOINT newVegas:Right_Collar1
					{
						OFFSET -14.783401 10.539993 -1.259500
						CHANNELS 3 Xrotation Yrotation Zrotation
						End Site
						{
							OFFSET 0.000000 18.199631 0.000000
						}
					}
				}
			}
		}
		JOINT newVegas:Belly
		{
			OFFSET 0.000000 -6.540398 9.014299
			CHANNELS 3 Xrotation Yrotation Zrotation
			End Site
			{
				OFFSET 0.000000 11.566666 0.000000
			}
		}
	}
	JOINT newVegas:ElvisFacialAnim_Joint
	{
		OFFSET 1.000000 -95.330101 -8.825800
		CHANNELS 3 Xrotation Yrotation Zrotation
		End Site
		{
			OFFSET 0.000000 35.315800 0.000000
		}
	}
}
MOTION
Frames: 4
Frame Time: 0.016667
-2.174807 74.833519 4.566480 0.002812 -7.730231 -15.653955 0.000000 -0.000000 -0.000001 -81.695182 15.112960 6.514910 106.479487 13.247244 0.938761 21.953459 3.256008 25.802447 -0.000000 0.000000 0.000000 0.000001 0.000000 0.000000 -31.722004 5.638362 -3.921729 65.837792 10.018615 0.711928 -36.915192 -2.230746 11.451692 -0.000000 0.000000 -0.000000 0.000004 -0.000000 -0.000002 5.609474 1.074072 -0.449289 4.651102 0.654908 1.633859 4.657231 0.491972 1.673783 0.161275 0.708903 0.370978 0.161284 0.708906 0.370981 -0.000000 -0.000000 -0.000001 0.161280 0.708896 0.370975 0.161279 0.708891 0.370982 -0.000002 -0.000001 0.000000 -0.000000 -0.000000 -0.000001 0.472294 0.823557 -6.563489 41.287052 -17.715626 -58.148706 0.000015 -58.979817 0.000018 -18.820699 -33.533493 26.792918 5.358053 -0.141366 9.666154 3.545756 27.155821 3.560562 0.000002 0.000001 -0.000003 -1.578841 0.825929 -19.703506 0.405083 2.870998 -21.069211 0.000001 -0.000003 0.000001 0.409503 7.162232 -25.647941 0.416500 2.993226 -22.185337 -0.000003 -0.000000 -0.000003 2.386878 10.570829 -32.882371 0.471673 2.115270 -18.421983 -0.000001 -0.000002 -0.000001 2.967952 13.388249 -36.938906 0.139963 1.667040 -18.441917 0.000005 0.000000 -0.000001 0.000001 0.000001 0.000000 0.000001 0.000001 0.000000 0.000000 0.000001 0.000000 -0.000000 -0.000002 -0.000001 -0.000000 -0.000002 -0.000001 -0.000000 -0.000002 -0.000001 -0.000002 -0.000003 -0.000002 0.625966 0.265420 11.021710 -6.297847 23.802328 54.826912 -0.000152 96.646992 0.000126 -19.103286 24.520611 -3.410950 0.789359 -8.211546 -4.825408 0.020105 -13.361254 -9.371030 -0.000000 -0.000002 -0.000001 -1.070493 -2.247363 17.231252 0.405446 -2.871950 21.079313 -0.000003 -0.000001 0.000001 0.438999 -7.256194 26.595138 0.417447 -2.995663 22.211553 0.000001 0.000001 -0.000001 2.698256 -11.184216 32.166089 0.472418 -2.116939 18.440365 -0.000001 -0.000001 -0.000004 4.305378 -16.260334 34.920981 0.139781 -1.666335 18.434710 0.000001 0.000003 0.000001 -0.000001 0.000000 0.000001 -0.000001 0.000001 0.000001 -0.000001 0.000001 0.000001 0.000000 0.000001 0.000001 0.000001 0.000002 0.000001 0.000000 0.000001 0.000001 0.000001 0.000002 0.000002 0.000001 0.000000 -0.000000 0.000001 0.000000 -0.000000 0.000001 0.000000 -0.000000 0.000001 0.000000 -0.000000 0.000001 0.000000 -0.000000 0.000001 0.000000 -0.000000 0.000001 0.000000 -0.000000 0.000000 0.000001 -0.000001 0.000000 -0.000000 -0.000001 
-1.511471 74.966499 12.402763 -0.095790 -6.142502 -15.332622 0.000000 0.000000 0.000000 -86.623280 13.812102 4.479974 100.771368 12.218484 0.920767 20.058020 3.883045 24.573984 -0.000001 0.000000 0.000000 -0.000002 0.000001 -0.000001 -22.020648 4.268375 -7.236639 63.068512 8.306500 0.901379 -40.094365 -0.136346 13.697004 0.000000 -0.000000 -0.000000 -0.000000 -0.000000 -0.000002 5.564107 2.920117 -0.282804 4.641765 1.992370 1.349665 4.668622 1.846767 1.438065 0.307302 0.483393 0.449309 0.307295 0.483393 0.449313 -0.000000 0.000000 0.000000 0.307307 0.483376 0.449312 0.307306 0.483403 0.449307 -0.000000 0.000000 0.000001 -0.000000 0.000000 -0.000000 0.417706 0.977523 -5.230729 51.088107 -19.833374 -55.708580 0.000021 -63.791563 0.000025 -19.494458 -33.921387 26.202663 5.358055 -0.141368 9.666155 3.545752 27.155818 3.560559 0.000000 -0.000001 -0.000006 -1.578842 0.825931 -19.703508 0.405084 2.870999 -21.069209 -0.000002 -0.000001 -0.000002 0.409503 7.162235 -25.647941 0.416498 2.993229 -22.185337 0.000001 -0.000000 0.000001 2.386876 10.570829 -32.882365 0.471671 2.115269 -18.421980 -0.000001 -0.000004 -0.000003 2.967949 13.388248 -36.938906 0.139965 1.667045 -18.441912 0.000003 -0.000002 0.000005 0.000001 -0.000001 -0.000001 0.000001 -0.000001 -0.000001 0.000001 -0.000002 -0.000001 0.000002 0.000001 0.000003 0.000002 0.000000 0.000000 0.000002 0.000001 0.000003 0.000002 -0.000000 0.000001 0.552494 2.485359 8.941589 -15.548132 21.166650 54.791525 0.012464 101.079567 -0.012314 -18.201858 23.757847 -3.922275 0.789361 -8.211543 -4.825404 0.020113 -13.361250 -9.371035 -0.000002 -0.000004 -0.000001 -1.070491 -2.247357 17.231259 0.405444 -2.871953 21.079316 0.000001 -0.000001 -0.000003 0.438999 -7.256191 26.595140 0.417445 -2.995664 22.211553 0.000003 0.000001 -0.000000 2.698257 -11.184211 32.166086 0.472418 -2.116940 18.440363 0.000003 0.000001 -0.000001 4.305380 -16.260331 34.920978 0.139784 -1.666337 18.434711 0.000000 -0.000000 0.000001 -0.000000 0.000001 0.000002 0.000001 0.000001 0.000000 -0.000000 0.000001 0.000002 0.000000 -0.000001 -0.000002 0.000001 -0.000001 -0.000000 0.000000 -0.000001 -0.000002 0.000001 -0.000001 0.000001 0.000001 -0.000000 -0.000000 0.000001 -0.000000 -0.000000 0.000001 -0.000000 -0.000000 0.000001 -0.000000 -0.000000 0.000001 -0.000000 -0.000000 0.000001 -0.000000 -0.000000 0.000001 -0.000000 -0.000000 -0.000000 0.000000 0.000002 0.000000 0.000000 0.000000 
-0.764032 75.228432 20.407307 0.119677 -3.964337 -14.673934 0.000000 0.000000 0.000002 -88.767993 12.949977 1.377278 92.952673 11.516702 0.927994 16.167918 4.585624 23.297951 -0.000000 0.000000 0.000000 -0.000001 -0.000000 -0.000001 -13.047007 2.856221 -10.402831 58.811556 6.830853 1.039356 -38.638752 1.219263 17.300389 -0.000001 -0.000000 0.000000 -0.000001 -0.000001 -0.000003 5.269149 4.893966 -0.594930 4.448706 3.149790 1.037703 4.488397 3.024020 1.166611 0.460362 0.229594 0.597977 0.460357 0.229592 0.597982 0.000001 0.000000 0.000001 0.460285 0.229584 0.597985 0.460433 0.229613 0.597975 -0.000002 0.000000 0.000001 0.000001 0.000000 -0.000000 0.360101 0.455522 -3.526980 59.840407 -20.330449 -53.492921 -0.000000 -68.582162 -0.000000 -20.234668 -34.438022 25.571393 5.358057 -0.141363 9.666155 3.545753 27.155818 3.560561 0.000002 -0.000003 -0.000005 -1.578841 0.825932 -19.703506 0.405085 2.870994 -21.069216 0.000001 0.000000 0.000000 0.409504 7.162238 -25.647939 0.416497 2.993227 -22.185337 -0.000002 0.000001 -0.000002 2.386878 10.570832 -32.882365 0.471671 2.115266 -18.421983 0.000002 -0.000003 0.000004 2.967950 13.388258 -36.938903 0.139966 1.667041 -18.441912 0.000002 0.000000 -0.000004 0.000001 0.000001 0.000001 0.000001 0.000001 0.000001 0.000000 0.000000 0.000001 0.000003 -0.000003 -0.000000 0.000003 -0.000003 -0.000002 0.000003 -0.000003 -0.000000 0.000002 -0.000002 -0.000001 0.572466 3.368495 7.197854 -23.014556 20.036252 54.517231 0.000167 105.501766 -0.000180 -15.360250 23.077302 -5.389239 0.789360 -8.211549 -4.825410 0.020102 -13.361250 -9.371032 0.000000 -0.000003 0.000002 -1.070492 -2.247366 17.231256 0.405448 -2.871952 21.079311 0.000004 0.000000 0.000000 0.439000 -7.256195 26.595134 0.417446 -2.995664 22.211546 -0.000002 0.000000 0.000000 2.698253 -11.184219 32.166083 0.472413 -2.116938 18.440362 -0.000001 -0.000001 -0.000000 4.305382 -16.260331 34.920981 0.139782 -1.666335 18.434703 0.000005 0.000003 -0.000002 -0.000001 0.000003 0.000002 -0.000001 -0.000001 0.000000 -0.000001 0.000002 0.000002 -0.000000 -0.000001 0.000001 0.000000 -0.000001 -0.000001 -0.000000 -0.000001 0.000001 0.000000 -0.000001 0.000000 0.000003 0.000000 0.000000 0.000003 0.000000 0.000000 0.000003 0.000000 0.000000 0.000003 0.000000 0.000000 0.000003 0.000000 0.000000 0.000003 0.000000 0.000000 0.000003 0.000000 0.000000 0.000000 0.000000 0.000001 0.000000 0.000000 0.000002 
0.010092 75.501556 28.541023 0.438214 -1.604575 -14.013768 0.000000 -0.000000 0.000000 -88.528554 12.182315 -2.203751 83.649033 11.230215 0.958004 10.546158 5.092433 22.182289 0.000000 0.000000 -0.000000 -0.000000 0.000000 -0.000005 -6.223287 1.717902 -13.086385 54.275289 6.108238 1.107673 -30.975185 2.699719 21.745533 -0.000000 0.000000 0.000000 -0.000002 -0.000000 -0.000000 4.883411 6.909400 -1.064275 4.164443 4.140925 0.752283 4.210765 4.034415 0.914154 0.605790 -0.025629 0.778507 0.605793 -0.025627 0.778503 0.000000 -0.000000 -0.000000 0.605801 -0.025626 0.778502 0.605785 -0.025639 0.778509 0.000001 0.000000 -0.000001 0.000000 -0.000000 0.000000 0.346231 -0.354004 -1.729433 67.332503 -19.844165 -52.035137 0.000034 -73.056229 0.000021 -21.063518 -34.966573 24.978879 5.358055 -0.141361 9.666154 3.545756 27.155818 3.560562 0.000001 -0.000001 -0.000001 -1.578842 0.825934 -19.703506 0.405085 2.870997 -21.069207 0.000001 0.000000 -0.000001 0.409503 7.162235 -25.647937 0.416501 2.993227 -22.185337 0.000002 0.000001 0.000001 2.386879 10.570837 -32.882368 0.471672 2.115268 -18.421983 0.000002 -0.000002 -0.000002 2.967950 13.388259 -36.938906 0.139964 1.667041 -18.441909 -0.000001 -0.000003 -0.000005 -0.000000 0.000001 0.000002 -0.000000 0.000001 0.000002 -0.000001 0.000001 0.000002 0.000001 0.000003 -0.000001 0.000001 0.000003 0.000001 0.000001 0.000003 -0.000001 -0.000000 0.000004 -0.000002 0.591742 3.455523 5.803169 -28.885850 20.146529 54.610105 -0.000085 109.781310 0.000081 -11.356421 22.070679 -7.051897 0.789356 -8.211544 -4.825404 0.020111 -13.361253 -9.371028 0.000000 -0.000004 0.000001 -1.070497 -2.247358 17.231258 0.405445 -2.871952 21.079316 -0.000001 0.000001 0.000001 0.438996 -7.256185 26.595134 0.417449 -2.995664 22.211550 -0.000002 0.000000 -0.000000 2.698254 -11.184209 32.166086 0.472419 -2.116941 18.440365 0.000001 0.000001 -0.000001 4.305376 -16.260322 34.920978 0.139785 -1.666337 18.434710 -0.000003 0.000003 -0.000001 0.000001 0.000002 0.000001 0.000001 -0.000001 0.000001 0.000001 0.000001 -0.000000 -0.000002 -0.000002 0.000001 -0.000002 -0.000001 0.000002 -0.000002 -0.000002 0.000001 -0.000002 -0.000001 0.000003 -0.000001 0.000000 -0.000001 -0.000001 0.000000 -0.000001 -0.000001 0.000000 -0.000001 -0.000001 0.000000 -0.000001 -0.000001 0.000000 -0.000001 -0.000001 0.000000 -0.000001 -0.000001 0.000000 -0.000001 -0.000000 0.000000 -0.000001 0.000000 -0.000000 0.000000 
